<svg xmlns="http://www.w3.org/2000/svg" xmlns:xlink="http://www.w3.org/1999/xlink" preserveAspectRatio="xMidYMid" width="100" height="98" viewBox="0 0 100 98">
  <defs>
    <style>

      .cls-3 {
        fill: #942721;
      }

      .cls-4 {
        fill: #ec3f35;
      }

      .cls-6 {
        fill: #ffffff;
      }
    </style>
  </defs>
  <g id="first-time-here">
    <path d="M90.000,55.077 C90.000,55.077 10.000,10.882 10.000,10.882 C10.000,10.882 10.000,40.701 10.000,40.701 C10.000,40.701 90.000,84.895 90.000,84.895 C90.000,84.895 90.000,55.077 90.000,55.077 Z" id="path-1" class="cls-3" fill-rule="evenodd"/>
    <path d="M0.000,67.231 C0.000,67.231 90.000,54.582 90.000,54.582 C90.000,54.582 90.000,84.582 90.000,84.582 C90.000,84.582 0.000,97.230 0.000,97.230 C0.000,97.230 10.000,81.216 10.000,81.216 C10.000,81.216 0.000,67.231 0.000,67.231 Z" id="path-2" class="cls-4" fill-rule="evenodd"/>
    <path d="M10.000,11.231 C10.000,11.231 90.000,-0.012 90.000,-0.012 C90.000,-0.012 100.000,13.544 100.000,13.544 C100.000,13.544 90.000,29.987 90.000,29.987 C90.000,29.987 10.000,41.231 10.000,41.231 C10.000,41.231 10.000,11.231 10.000,11.231 Z" id="path-3" class="cls-4" fill-rule="evenodd"/>
    <path d="M81.029,71.398 C79.559,72.715 79.259,73.627 79.259,75.037 C79.259,75.037 76.559,75.417 76.559,75.417 C76.559,72.747 77.219,71.634 79.289,69.153 C80.159,68.101 80.639,67.193 80.639,66.053 C80.639,64.463 79.949,63.901 78.599,64.090 C77.159,64.293 76.529,65.281 76.529,66.841 C76.529,66.841 76.529,68.341 76.529,68.341 C76.529,68.341 73.019,68.834 73.019,68.834 C73.019,68.834 73.019,66.914 73.019,66.914 C73.019,63.944 74.759,61.240 78.539,60.709 C82.799,60.110 84.448,62.458 84.448,65.158 C84.448,67.678 83.338,69.364 81.029,71.398 ZM76.094,26.541 C76.094,26.541 71.804,27.144 71.804,27.144 C71.804,27.144 71.804,10.825 71.804,10.825 C71.804,10.825 67.484,11.432 67.484,11.432 C67.484,11.432 67.484,7.772 67.484,7.772 C67.484,7.772 80.384,5.960 80.384,5.960 C80.384,5.960 80.384,9.619 80.384,9.619 C80.384,9.619 76.094,10.222 76.094,10.222 C76.094,10.222 76.094,26.541 76.094,26.541 ZM59.775,40.512 C59.775,40.512 67.196,39.469 67.196,39.469 C67.196,39.469 67.196,41.870 67.196,41.870 C67.196,41.870 62.635,42.511 62.635,42.511 C62.635,42.511 62.635,45.431 62.635,45.431 C62.635,45.431 65.776,44.990 65.776,44.990 C65.776,44.990 65.776,47.150 65.776,47.150 C65.776,47.150 62.635,47.592 62.635,47.592 C62.635,47.592 62.635,50.932 62.635,50.932 C62.635,50.932 67.196,50.292 67.196,50.292 C67.196,50.292 67.196,52.792 67.196,52.792 C67.196,52.792 59.775,53.835 59.775,53.835 C59.775,53.835 59.775,40.512 59.775,40.512 ZM61.904,16.986 C64.694,18.124 66.644,19.410 66.644,22.320 C66.644,25.560 64.244,28.717 60.254,29.278 C56.324,29.830 53.834,27.930 53.834,24.510 C53.834,24.510 53.834,23.490 53.834,23.490 C53.834,23.490 57.764,22.938 57.764,22.938 C57.764,22.938 57.764,23.598 57.764,23.598 C57.764,25.278 58.604,26.060 60.164,25.840 C61.694,25.625 62.444,24.650 62.444,23.270 C62.444,21.830 61.304,21.120 58.994,20.245 C56.594,19.293 54.044,18.061 54.044,15.001 C54.044,11.941 56.234,8.874 60.314,8.300 C63.974,7.786 66.404,9.904 66.404,13.084 C66.404,13.084 66.404,13.894 66.404,13.894 C66.404,13.894 62.534,14.438 62.534,14.438 C62.534,14.438 62.534,13.808 62.534,13.808 C62.534,12.458 61.784,11.513 60.284,11.724 C59.024,11.901 58.214,12.795 58.214,13.995 C58.214,15.405 59.354,16.025 61.904,16.986 ZM57.857,40.782 C57.857,40.782 57.857,54.105 57.857,54.105 C57.857,54.105 55.157,54.484 55.157,54.484 C55.157,54.484 55.157,45.042 55.157,45.042 C55.157,45.042 54.496,48.156 54.496,48.156 C54.496,48.156 52.896,54.802 52.896,54.802 C52.896,54.802 50.756,55.103 50.756,55.103 C50.756,55.103 49.235,48.895 49.235,48.895 C49.235,48.895 48.595,45.964 48.595,45.964 C48.595,45.964 48.595,55.406 48.595,55.406 C48.595,55.406 46.035,55.766 46.035,55.766 C46.035,55.766 46.035,42.443 46.035,42.443 C46.035,42.443 49.875,41.904 49.875,41.904 C49.875,41.904 51.476,48.460 51.476,48.460 C51.476,48.460 51.956,50.733 51.956,50.733 C51.956,50.733 52.456,48.322 52.456,48.322 C52.456,48.322 54.036,41.319 54.036,41.319 C54.036,41.319 57.857,40.782 57.857,40.782 ZM47.984,30.492 C47.984,30.492 45.134,23.093 45.134,23.093 C45.134,23.093 43.904,23.266 43.904,23.266 C43.904,23.266 43.904,31.065 43.904,31.065 C43.904,31.065 39.614,31.668 39.614,31.668 C39.614,31.668 39.614,11.689 39.614,11.689 C39.614,11.689 46.904,10.665 46.904,10.665 C50.264,10.193 52.064,11.829 52.064,14.799 C52.064,14.799 52.064,17.199 52.064,17.199 C52.064,19.419 51.134,21.080 49.214,22.010 C49.214,22.010 52.424,29.868 52.424,29.868 C52.424,29.868 47.984,30.492 47.984,30.492 ZM47.954,15.497 C47.954,14.507 47.534,13.936 46.424,14.092 C46.424,14.092 43.904,14.446 43.904,14.446 C43.904,14.446 43.904,20.176 43.904,20.176 C43.904,20.176 46.244,19.847 46.244,19.847 C47.354,19.691 47.954,19.067 47.954,17.867 C47.954,17.867 47.954,15.497 47.954,15.497 ZM32.415,12.701 C32.415,12.701 36.704,12.098 36.704,12.098 C36.704,12.098 36.704,32.077 36.704,32.077 C36.704,32.077 32.415,32.680 32.415,32.680 C32.415,32.680 32.415,12.701 32.415,12.701 ZM40.037,45.727 C40.037,45.727 37.176,46.129 37.176,46.129 C37.176,46.129 37.176,57.011 37.176,57.011 C37.176,57.011 34.315,57.413 34.315,57.413 C34.315,57.413 34.315,46.531 34.315,46.531 C34.315,46.531 31.435,46.936 31.435,46.936 C31.435,46.936 31.435,44.495 31.435,44.495 C31.435,44.495 40.037,43.286 40.037,43.286 C40.037,43.286 40.037,45.727 40.037,45.727 ZM23.955,22.140 C23.955,22.140 28.785,21.461 28.785,21.461 C28.785,21.461 28.785,24.911 28.785,24.911 C28.785,24.911 23.955,25.590 23.955,25.590 C23.955,25.590 23.955,33.869 23.955,33.869 C23.955,33.869 19.665,34.472 19.665,34.472 C19.665,34.472 19.665,14.493 19.665,14.493 C19.665,14.493 30.585,12.958 30.585,12.958 C30.585,12.958 30.585,16.438 30.585,16.438 C30.585,16.438 23.955,17.370 23.955,17.370 C23.955,17.370 23.955,22.140 23.955,22.140 ZM24.600,68.800 C24.600,68.800 28.890,68.196 28.890,68.196 C28.890,68.196 28.890,88.176 28.890,88.176 C28.890,88.176 24.600,88.779 24.600,88.779 C24.600,88.779 24.600,80.769 24.600,80.769 C24.600,80.769 19.620,81.469 19.620,81.469 C19.620,81.469 19.620,89.478 19.620,89.478 C19.620,89.478 15.330,90.081 15.330,90.081 C15.330,90.081 15.330,70.102 15.330,70.102 C15.330,70.102 19.620,69.499 19.620,69.499 C19.620,69.499 19.620,77.779 19.620,77.779 C19.620,77.779 24.600,77.079 24.600,77.079 C24.600,77.079 24.600,68.800 24.600,68.800 ZM41.235,43.118 C41.235,43.118 44.095,42.716 44.095,42.716 C44.095,42.716 44.095,56.039 44.095,56.039 C44.095,56.039 41.235,56.441 41.235,56.441 C41.235,56.441 41.235,43.118 41.235,43.118 ZM42.899,69.827 C42.899,69.827 36.060,70.789 36.060,70.789 C36.060,70.789 36.060,75.168 36.060,75.168 C36.060,75.168 40.769,74.507 40.769,74.507 C40.769,74.507 40.769,77.746 40.769,77.746 C40.769,77.746 36.060,78.408 36.060,78.408 C36.060,78.408 36.060,83.418 36.060,83.418 C36.060,83.418 42.899,82.457 42.899,82.457 C42.899,82.457 42.899,86.207 42.899,86.207 C42.899,86.207 31.770,87.771 31.770,87.771 C31.770,87.771 31.770,67.792 31.770,67.792 C31.770,67.792 42.899,66.228 42.899,66.228 C42.899,66.228 42.899,69.827 42.899,69.827 ZM57.629,69.017 C57.629,69.017 57.629,71.417 57.629,71.417 C57.629,73.637 56.699,75.298 54.779,76.228 C54.779,76.228 57.989,84.086 57.989,84.086 C57.989,84.086 53.549,84.710 53.549,84.710 C53.549,84.710 50.699,77.311 50.699,77.311 C50.699,77.311 49.469,77.484 49.469,77.484 C49.469,77.484 49.469,85.283 49.469,85.283 C49.469,85.283 45.179,85.886 45.179,85.886 C45.179,85.886 45.179,65.907 45.179,65.907 C45.179,65.907 52.469,64.883 52.469,64.883 C55.829,64.410 57.629,66.047 57.629,69.017 ZM49.469,68.664 C49.469,68.664 49.469,74.394 49.469,74.394 C49.469,74.394 51.809,74.065 51.809,74.065 C52.919,73.909 53.519,73.285 53.519,72.085 C53.519,72.085 53.519,69.715 53.519,69.715 C53.519,68.725 53.099,68.154 51.989,68.310 C51.989,68.310 49.469,68.664 49.469,68.664 ZM71.159,65.856 C71.159,65.856 64.319,66.817 64.319,66.817 C64.319,66.817 64.319,71.197 64.319,71.197 C64.319,71.197 69.029,70.535 69.029,70.535 C69.029,70.535 69.029,73.775 69.029,73.775 C69.029,73.775 64.319,74.437 64.319,74.437 C64.319,74.437 64.319,79.447 64.319,79.447 C64.319,79.447 71.159,78.485 71.159,78.485 C71.159,78.485 71.159,82.235 71.159,82.235 C71.159,82.235 60.029,83.799 60.029,83.799 C60.029,83.799 60.029,63.820 60.029,63.820 C60.029,63.820 71.159,62.256 71.159,62.256 C71.159,62.256 71.159,65.856 71.159,65.856 ZM79.469,81.067 C79.469,81.067 76.229,81.522 76.229,81.522 C76.229,81.522 76.229,77.833 76.229,77.833 C76.229,77.833 79.469,77.377 79.469,77.377 C79.469,77.377 79.469,81.067 79.469,81.067 Z" id="path-4" class="cls-6" fill-rule="evenodd"/>
  </g>
</svg>
